<?xml version="1.0" encoding="UTF-8" standalone="no"?>
<!DOCTYPE svg PUBLIC "-//W3C//DTD SVG 1.1//EN" "http://www.w3.org/Graphics/SVG/1.1/DTD/svg11.dtd">
<svg version="1.1" xmlns="http://www.w3.org/2000/svg" xmlns:xlink="http://www.w3.org/1999/xlink" preserveAspectRatio="xMidYMid meet" viewBox="-1.000000000000007 -1 516 516" width="512.13" height="512.13"><defs><path d="M306.52 303.69C289.08 301.13 278.18 299.54 273.82 298.9C221.67 291.26 168.68 291.21 116.51 298.76C111.97 299.41 100.6 301.06 82.41 303.69" id="b5hLLSqQ"></path><path d="M281.77 204.75C281.77 214.15 273.51 221.78 263.33 221.78C253.16 221.78 244.89 214.15 244.89 204.75C244.89 195.36 253.16 187.73 263.33 187.73C273.51 187.73 281.77 195.36 281.77 204.75Z" id="cDzsEUQEX"></path><path d="M142.7 204.75C142.7 214.15 134.43 221.78 124.26 221.78C114.08 221.78 105.82 214.15 105.82 204.75C105.82 195.36 114.08 187.73 124.26 187.73C134.43 187.73 142.7 195.36 142.7 204.75Z" id="a1FwUyQwU"></path><path d="M460.8 452.27C460.8 453.97 460.8 467.63 460.8 469.33C460.8 474.05 464.62 477.87 469.33 477.87C474.05 477.87 477.87 474.05 477.87 469.33C477.87 467.63 477.87 453.97 477.87 452.27C477.87 447.55 474.05 443.73 469.33 443.73C464.62 443.73 460.8 447.55 460.8 452.27Z" id="d2eBLY2lo"></path><path d="M426.67 452.27C426.67 453.97 426.67 467.63 426.67 469.33C426.67 474.05 430.49 477.87 435.2 477.87C439.91 477.87 443.73 474.05 443.73 469.33C443.73 467.63 443.73 453.97 443.73 452.27C443.73 447.55 439.91 443.73 435.2 443.73C430.49 443.73 426.67 447.55 426.67 452.27Z" id="co5q7u17M"></path><path d="M392.53 452.27C392.53 453.97 392.53 467.63 392.53 469.33C392.53 474.05 396.35 477.87 401.07 477.87C405.78 477.87 409.6 474.05 409.6 469.33C409.6 467.63 409.6 453.97 409.6 452.27C409.6 447.55 405.78 443.73 401.07 443.73C396.35 443.73 392.53 447.55 392.53 452.27Z" id="a2Guy9zaop"></path><path d="M358.4 452.27C358.4 453.97 358.4 467.63 358.4 469.33C358.4 474.05 362.22 477.87 366.93 477.87C371.65 477.87 375.47 474.05 375.47 469.33C375.47 467.63 375.47 453.97 375.47 452.27C375.47 447.55 371.65 443.73 366.93 443.73C362.22 443.73 358.4 447.55 358.4 452.27Z" id="b7yKjENfy"></path><path d="M324.27 452.27C324.27 453.97 324.27 467.63 324.27 469.33C324.27 474.05 328.09 477.87 332.8 477.87C337.51 477.87 341.33 474.05 341.33 469.33C341.33 467.63 341.33 453.97 341.33 452.27C341.33 447.55 337.51 443.73 332.8 443.73C328.09 443.73 324.27 447.55 324.27 452.27Z" id="h1W3EV1z9g"></path><path d="M443.73 187.73C429.59 187.73 418.13 199.19 418.13 213.33C418.13 227.47 429.59 238.93 443.73 238.93C457.87 238.93 469.33 227.47 469.33 213.33C469.33 199.19 457.87 187.73 443.73 187.73ZM435.2 213.33C435.2 208.62 439.02 204.8 443.73 204.8C448.45 204.8 452.27 208.62 452.27 213.33C452.27 218.05 448.45 221.87 443.73 221.87C439.02 221.87 435.2 218.05 435.2 213.33Z" id="afxMje3fa"></path><path d="M469.33 145.07C469.33 130.93 457.87 119.47 443.73 119.47C429.59 119.47 418.13 130.93 418.13 145.07C418.13 159.21 429.59 170.67 443.73 170.67C457.87 170.67 469.33 159.21 469.33 145.07ZM452.27 145.07C452.27 149.78 448.45 153.6 443.73 153.6C439.02 153.6 435.2 149.78 435.2 145.07C435.2 140.35 439.02 136.53 443.73 136.53C448.45 136.53 452.27 140.35 452.27 145.07Z" id="cpdFP4pza"></path><path d="M290.13 42.67C280.71 42.67 273.07 50.31 273.07 59.73C273.07 61.44 273.07 75.09 273.07 76.8C273.07 86.23 280.71 93.87 290.13 93.87C307.2 93.87 443.73 93.87 460.8 93.87C470.23 93.87 477.87 86.23 477.87 76.8C477.87 75.09 477.87 61.44 477.87 59.73C477.87 50.31 470.23 42.67 460.8 42.67C426.67 42.67 307.2 42.67 290.13 42.67ZM290.13 76.8L290.13 59.73L460.8 59.73L460.8 76.8L290.13 76.8Z" id="eY40LdfWE"></path><path d="M264.53 0C250.39 0 238.93 11.46 238.93 25.6C238.93 31.86 238.93 63.15 238.93 119.47C121.17 119.47 55.75 119.47 42.67 119.47C19.1 119.47 0 138.57 0 162.13C0 184.32 0 361.81 0 384C0 407.56 19.1 426.67 42.67 426.67C48.92 426.67 80.21 426.67 136.53 426.67L136.53 460.8C121.17 460.8 112.64 460.8 110.93 460.8C96.79 460.8 85.33 472.26 85.33 486.4C85.33 500.54 96.79 512 110.93 512C148.48 512 448.85 512 486.4 512C500.54 512 512 500.54 512 486.4C512 440.32 512 71.68 512 25.6C512 11.46 500.54 0 486.4 0C442.03 0 286.72 0 264.53 0ZM349.87 136.53C364.01 136.53 375.47 147.99 375.47 162.13C375.47 175.79 375.47 244.05 375.47 366.93L17.07 366.93C17.07 244.05 17.07 175.79 17.07 162.13C17.07 147.99 28.53 136.53 42.67 136.53C104.11 136.53 319.15 136.53 349.87 136.53ZM375.47 384C375.47 398.14 364.01 409.6 349.87 409.6C319.15 409.6 73.39 409.6 42.67 409.6C28.53 409.6 17.07 398.14 17.07 384C88.75 384 339.63 384 375.47 384ZM153.6 426.67L238.93 426.67L238.93 460.8L153.6 460.8L153.6 426.67ZM264.53 494.93C172.37 494.93 121.17 494.93 110.93 494.93C106.22 494.93 102.4 491.11 102.4 486.4C102.4 481.69 106.22 477.87 110.93 477.87C128 477.87 264.53 477.87 281.6 477.87C286.31 477.87 290.13 481.69 290.13 486.4C290.13 491.11 286.31 494.93 281.6 494.93C279.32 494.93 273.64 494.93 264.53 494.93ZM494.93 486.4C494.93 491.11 491.11 494.93 486.4 494.93C468.33 494.93 323.74 494.93 305.66 494.93C308.43 487.11 307.23 478.43 302.45 471.65C297.67 464.87 289.9 460.82 281.6 460.8C279.89 460.8 271.36 460.8 256 460.8L256 426.67C312.32 426.67 343.61 426.67 349.87 426.67C373.43 426.67 392.53 407.56 392.53 384C392.53 361.81 392.53 184.32 392.53 162.13C392.53 138.57 373.43 119.47 349.87 119.47C343.61 119.47 312.32 119.47 256 119.47C256 63.15 256 31.86 256 25.6C256 20.89 259.82 17.07 264.53 17.07C286.72 17.07 464.21 17.07 486.4 17.07C491.11 17.07 494.93 20.89 494.93 25.6C494.93 117.76 494.93 394.24 494.93 486.4Z" id="cbU9wGKHv"></path></defs><g><g><g><use xlink:href="#b5hLLSqQ" opacity="1" fill-opacity="0" stroke="#000000" stroke-width="7.56" stroke-opacity="1"></use></g></g><g><use xlink:href="#cDzsEUQEX" opacity="1" fill="#000000" fill-opacity="1"></use></g><g><use xlink:href="#a1FwUyQwU" opacity="1" fill="#000000" fill-opacity="1"></use></g><g><use xlink:href="#d2eBLY2lo" opacity="1" fill="#000000" fill-opacity="1"></use><g><use xlink:href="#d2eBLY2lo" opacity="1" fill-opacity="0" stroke="#000000" stroke-width="1" stroke-opacity="0"></use></g></g><g><use xlink:href="#co5q7u17M" opacity="1" fill="#000000" fill-opacity="1"></use><g><use xlink:href="#co5q7u17M" opacity="1" fill-opacity="0" stroke="#000000" stroke-width="1" stroke-opacity="0"></use></g></g><g><use xlink:href="#a2Guy9zaop" opacity="1" fill="#000000" fill-opacity="1"></use><g><use xlink:href="#a2Guy9zaop" opacity="1" fill-opacity="0" stroke="#000000" stroke-width="1" stroke-opacity="0"></use></g></g><g><use xlink:href="#b7yKjENfy" opacity="1" fill="#000000" fill-opacity="1"></use><g><use xlink:href="#b7yKjENfy" opacity="1" fill-opacity="0" stroke="#000000" stroke-width="1" stroke-opacity="0"></use></g></g><g><use xlink:href="#h1W3EV1z9g" opacity="1" fill="#000000" fill-opacity="1"></use><g><use xlink:href="#h1W3EV1z9g" opacity="1" fill-opacity="0" stroke="#000000" stroke-width="1" stroke-opacity="0"></use></g></g><g><use xlink:href="#afxMje3fa" opacity="1" fill="#000000" fill-opacity="1"></use><g><use xlink:href="#afxMje3fa" opacity="1" fill-opacity="0" stroke="#000000" stroke-width="1" stroke-opacity="0"></use></g></g><g><use xlink:href="#cpdFP4pza" opacity="1" fill="#000000" fill-opacity="1"></use><g><use xlink:href="#cpdFP4pza" opacity="1" fill-opacity="0" stroke="#000000" stroke-width="1" stroke-opacity="0"></use></g></g><g><use xlink:href="#eY40LdfWE" opacity="1" fill="#000000" fill-opacity="1"></use><g><use xlink:href="#eY40LdfWE" opacity="1" fill-opacity="0" stroke="#000000" stroke-width="1" stroke-opacity="0"></use></g></g><g><use xlink:href="#cbU9wGKHv" opacity="1" fill="#000000" fill-opacity="1"></use><g><use xlink:href="#cbU9wGKHv" opacity="1" fill-opacity="0" stroke="#000000" stroke-width="1" stroke-opacity="0"></use></g></g></g></svg>